<?xml version="1.0" standalone="no"?>
<!DOCTYPE svg PUBLIC "-//W3C//DTD SVG 20010904//EN"
 "http://www.w3.org/TR/2001/REC-SVG-20010904/DTD/svg10.dtd">
<svg version="1.0" xmlns="http://www.w3.org/2000/svg"
 width="512.000000pt" height="512.000000pt" viewBox="0 0 512.000000 512.000000"
 preserveAspectRatio="xMidYMid meet">
<metadata>
Created by potrace 1.16, written by Peter Selinger 2001-2019
</metadata>
<g transform="translate(0.000000,512.000000) scale(0.100000,-0.100000)"
fill="#000000" stroke="none">
<path d="M0 2560 l0 -2560 2560 0 2560 0 0 2560 0 2560 -2560 0 -2560 0 0
-2560z m2745 960 c6 -4 44 -17 85 -30 160 -50 406 -175 441 -224 4 -4 16 -5
28 -1 19 6 22 13 19 53 -2 39 1 50 20 65 12 10 22 25 22 34 0 30 83 -21 119
-73 26 -37 57 -52 74 -35 6 6 11 31 11 56 l0 45 43 -48 c23 -26 42 -51 43 -57
0 -5 7 -23 15 -39 22 -42 56 -199 56 -260 0 -84 -6 -154 -13 -162 -5 -4 -8
-17 -8 -28 0 -17 2 -18 10 -6 8 11 9 7 4 -15 -4 -16 -11 -36 -17 -42 -6 -9 -6
-13 1 -13 14 0 23 -40 9 -40 -7 0 -4 -7 6 -15 17 -12 9 -13 -61 -8 -160 10
-451 -31 -542 -77 -52 -25 -110 -78 -110 -98 0 -7 -5 -10 -10 -7 -6 4 -7 11
-4 17 4 7 2 8 -5 4 -6 -4 -25 4 -42 18 -75 63 -185 55 -268 -20 l-49 -44 -22
30 c-12 17 -47 43 -78 59 -96 48 -153 56 -412 55 -214 -1 -242 -3 -310 -23
-41 -13 -106 -32 -145 -42 -38 -11 -73 -23 -78 -28 -5 -5 -11 -36 -14 -68 -5
-58 -4 -61 25 -82 33 -23 44 -59 58 -186 9 -86 49 -205 84 -254 36 -49 105
-95 175 -117 29 -10 104 -18 180 -21 136 -6 212 6 294 44 48 23 119 97 153
159 27 51 88 222 88 250 0 8 4 13 9 10 9 -6 21 26 21 54 0 13 -1 13 -11 0 -8
-11 -9 1 -5 44 4 53 9 64 47 102 95 97 207 92 277 -11 23 -33 31 -61 10 -32
-11 14 -13 0 -13 -81 0 -80 3 -102 18 -116 16 -17 17 -17 18 1 1 13 3 11 9 -7
l8 -25 1 28 c1 37 18 34 26 -5 14 -65 86 -198 135 -248 70 -72 122 -92 250
-98 109 -4 243 18 309 52 25 13 27 13 26 -2 0 -10 -3 -22 -6 -27 -3 -6 -6 -28
-8 -50 -2 -45 -28 -151 -42 -177 -5 -10 -9 -27 -9 -37 0 -11 -4 -22 -9 -25 -4
-3 -26 -40 -47 -83 -34 -67 -302 -443 -397 -557 -17 -21 -34 -43 -36 -48 -10
-27 -99 -91 -141 -101 -14 -3 -61 -15 -105 -27 -67 -18 -112 -22 -275 -23
-192 -2 -196 -2 -252 25 -40 19 -88 57 -170 140 -63 62 -152 149 -198 194 -98
94 -248 254 -284 304 -118 162 -142 212 -191 411 -33 134 -43 478 -14 488 8 2
7 6 -2 12 -13 8 -19 31 -21 91 0 15 -5 25 -9 22 -5 -3 -9 6 -9 20 0 14 6 26
13 26 7 1 5 6 -6 14 -12 9 -14 16 -8 21 6 3 11 11 11 17 0 6 -7 5 -17 -3 -15
-13 -16 -11 -10 24 3 20 2 37 -4 37 -5 0 -9 28 -10 63 l-1 62 -13 -40 c-18
-55 -19 -21 -1 41 8 27 22 105 31 174 38 291 91 434 195 522 54 47 95 66 200
95 84 23 89 23 455 17 204 -3 375 -10 380 -14z m986 -900 c69 -13 81 -26 21
-23 -35 2 -42 1 -27 -6 19 -9 18 -10 -5 -10 -15 -1 -20 -4 -14 -9 8 -4 12 -46
13 -112 2 -115 4 -140 13 -155 3 -6 9 -30 13 -55 l8 -45 12 51 c6 28 26 72 43
98 18 26 32 51 32 57 0 5 5 9 11 9 16 0 3 -244 -16 -308 -32 -106 -123 -170
-287 -198 -139 -24 -244 -8 -313 48 -67 56 -149 213 -176 336 -9 46 -8 54 12
81 27 37 34 35 18 -5 -25 -65 0 -177 50 -225 27 -25 88 -32 179 -18 93 14 111
26 143 94 38 82 13 188 -58 242 -19 15 -61 32 -92 39 l-56 11 38 8 c105 21
227 -26 284 -110 19 -27 37 -62 40 -77 7 -37 33 -37 33 1 0 40 -19 91 -49 129
-31 40 -128 89 -195 98 -32 4 -44 9 -35 15 11 7 11 9 -1 9 -38 0 -189 -30
-223 -45 -22 -9 -36 -11 -33 -6 16 25 176 64 351 84 67 8 216 6 266 -3z
m-1411 -60 c120 -15 183 -37 222 -77 l33 -34 -2 -100 c-2 -184 -89 -384 -195
-456 -60 -40 -123 -53 -252 -53 -228 0 -335 52 -386 187 -19 51 -40 180 -24
145 4 -10 15 0 34 28 18 27 30 38 35 30 4 -7 21 16 41 58 19 39 50 84 71 102
113 99 289 118 420 44 81 -46 151 -153 154 -233 0 -17 8 -2 21 39 11 36 25 75
30 86 6 12 7 30 4 41 -3 10 -2 33 4 51 12 42 3 65 -22 59 -15 -4 -17 -2 -8 7
20 26 -84 52 -235 59 -63 3 -145 -4 -141 -12 3 -5 -18 -12 -46 -16 -69 -9
-165 -53 -214 -98 -22 -19 -55 -62 -74 -96 -21 -38 -39 -60 -47 -57 -7 3 -13
1 -13 -5 0 -6 -4 -7 -10 -4 -6 4 -10 -6 -11 -22 -1 -21 -4 -17 -11 17 -14 69
-5 203 16 235 23 34 84 62 166 73 91 13 339 14 440 2z m-1050 -147 c29 -15 58
-36 65 -47 16 -26 29 -186 16 -205 -7 -10 -18 1 -46 45 -20 32 -52 73 -71 91
-51 49 -104 56 -104 14 0 -22 19 -39 83 -76 26 -15 47 -33 47 -41 0 -8 4 -14
8 -14 5 0 21 -42 36 -92 15 -51 36 -113 46 -138 10 -25 26 -85 36 -133 20 -97
17 -107 -37 -107 -58 0 -110 71 -159 214 -85 252 -92 448 -19 500 31 21 38 21
99 -11z"/>
<path d="M3202 2871 c-46 -16 -92 -37 -103 -47 -37 -33 -19 -100 31 -116 8 -3
44 9 80 26 60 28 74 30 175 31 98 0 118 -3 184 -29 71 -28 75 -28 88 -10 24
33 2 69 -75 118 -100 63 -247 73 -380 27z"/>
<path d="M2024 2845 c-122 -27 -276 -106 -290 -148 -8 -25 13 -47 45 -47 15 0
56 11 91 25 155 61 302 70 448 29 l94 -27 26 20 c38 28 43 86 9 107 -74 49
-290 70 -423 41z"/>
<path d="M2980 1885 c0 -5 7 -23 15 -38 46 -88 23 -149 -72 -191 -31 -13 -57
-17 -100 -14 -86 6 -129 31 -165 95 -34 61 -53 59 -53 -5 0 -59 34 -113 88
-140 63 -32 189 -42 235 -18 18 9 32 14 32 11 0 -3 16 11 35 32 51 56 65 113
44 183 -11 37 -58 105 -59 85z"/>
<path d="M3218 1500 c-66 -27 -221 -57 -358 -70 -138 -13 -360 0 -492 28 -75
16 -88 17 -88 5 0 -35 118 -112 224 -148 136 -46 284 -64 369 -45 108 25 227
74 283 116 17 13 34 21 39 16 5 -4 5 -2 1 5 -3 7 11 30 34 55 22 24 40 46 40
51 0 9 4 10 -52 -13z m-223 -160 c-61 -60 -372 -67 -474 -10 -7 4 71 8 175 9
104 0 214 5 244 10 30 5 59 9 65 10 5 0 1 -8 -10 -19z"/>
<path d="M2053 2447 c-82 -31 -140 -124 -130 -210 7 -54 46 -130 74 -142 10
-4 74 -10 142 -13 l123 -4 25 28 c41 48 55 84 56 143 1 123 -89 212 -210 210
-26 0 -62 -6 -80 -12z"/>
</g>
</svg>
